HIERARCHY
ROOT Hips
{
	OFFSET 0.000000 100.481300 0.000000
	CHANNELS 6 Xposition Yposition Zposition Xrotation Yrotation Zrotation 
	JOINT Spine
	{
		OFFSET -0.279200 12.230698 -2.892100
		CHANNELS 3 Xrotation Yrotation Zrotation
		JOINT Spine1
		{
			OFFSET -0.232667 10.192268 -1.242267
			CHANNELS 3 Xrotation Yrotation Zrotation
			JOINT Spine1_split
			{
				OFFSET -0.232667 10.192268 -1.242267
				CHANNELS 3 Xrotation Yrotation Zrotation
				JOINT Spine2
				{
					OFFSET -0.232667 10.192268 -1.242267
					CHANNELS 3 Xrotation Yrotation Zrotation
					JOINT Neck
					{
						OFFSET -0.418800 17.814194 8.416900
						CHANNELS 3 Xrotation Yrotation Zrotation
						JOINT Head
						{
							OFFSET 0.000000 7.031097 3.806800
							CHANNELS 3 Xrotation Yrotation Zrotation
							JOINT HeadTop_End
							{
								OFFSET 0.000000 24.646606 12.978600
								CHANNELS 3 Xrotation Yrotation Zrotation
								End Site
								{
									OFFSET 0.000000 0.000000 0.000000
								}
							}
						}
					}
					JOINT LeftShoulder
					{
						OFFSET 8.476499 7.247704 -3.868750
						CHANNELS 3 Xrotation Yrotation Zrotation
						JOINT LeftShoulder_split
						{
							OFFSET 8.476499 7.247704 -3.868750
							CHANNELS 3 Xrotation Yrotation Zrotation
							JOINT LeftArm
							{
								OFFSET 9.308998 -2.777710 0.208600
								CHANNELS 3 Xrotation Yrotation Zrotation
								JOINT LeftForeArm
								{
									OFFSET 29.972298 0.000000 0.000000
									CHANNELS 3 Xrotation Yrotation Zrotation
									JOINT LeftHand
									{
										OFFSET 26.026505 0.000000 0.000000
										CHANNELS 3 Xrotation Yrotation Zrotation
										JOINT LeftHandThumb1
										{
											OFFSET 12.240501 -7.147949 9.207150
											CHANNELS 3 Xrotation Yrotation Zrotation
											JOINT LeftHandThumb2
											{
												OFFSET 4.138618 -2.389435 2.389433
												CHANNELS 3 Xrotation Yrotation Zrotation
												JOINT LeftHandThumb3
												{
													OFFSET 2.726913 -1.574387 1.574386
													CHANNELS 3 Xrotation Yrotation Zrotation
													JOINT LeftHandThumb4
													{
														OFFSET 3.941010 -2.275345 2.275342
														CHANNELS 3 Xrotation Yrotation Zrotation
														End Site
														{
															OFFSET 0.000000 0.000000 0.000000
														}
													}
												}
											}
										}
										JOINT LeftHandIndex1
										{
											OFFSET 24.424698 -1.985611 5.953459
											CHANNELS 3 Xrotation Yrotation Zrotation
											JOINT LeftHandIndex2
											{
												OFFSET 6.426697 0.000000 0.000000
												CHANNELS 3 Xrotation Yrotation Zrotation
												JOINT LeftHandIndex3
												{
													OFFSET 5.337898 0.000000 0.000000
													CHANNELS 3 Xrotation Yrotation Zrotation
													JOINT LeftHandIndex4
													{
														OFFSET 4.409401 0.000000 0.000000
														CHANNELS 3 Xrotation Yrotation Zrotation
														End Site
														{
															OFFSET 0.000000 0.000000 0.000000
														}
													}
												}
											}
										}
										JOINT LeftHandMiddle1
										{
											OFFSET 23.810104 0.000000 0.000000
											CHANNELS 3 Xrotation Yrotation Zrotation
											JOINT LeftHandMiddle2
											{
												OFFSET 7.176498 0.000000 0.000000
												CHANNELS 3 Xrotation Yrotation Zrotation
												JOINT LeftHandMiddle3
												{
													OFFSET 6.774902 0.000000 0.000000
													CHANNELS 3 Xrotation Yrotation Zrotation
													JOINT LeftHandMiddle4
													{
														OFFSET 5.403328 0.000000 0.000000
														CHANNELS 3 Xrotation Yrotation Zrotation
														End Site
														{
															OFFSET 0.000000 0.000000 0.000000
														}
													}
												}
											}
										}
										JOINT LeftHandRing1
										{
											OFFSET 22.908401 -0.839279 -6.020567
											CHANNELS 3 Xrotation Yrotation Zrotation
											JOINT LeftHandRing2
											{
												OFFSET 6.337502 0.000000 0.000000
												CHANNELS 3 Xrotation Yrotation Zrotation
												JOINT LeftHandRing3
												{
													OFFSET 5.779297 0.000000 0.000000
													CHANNELS 3 Xrotation Yrotation Zrotation
													JOINT LeftHandRing4
													{
														OFFSET 4.965698 0.000000 0.000000
														CHANNELS 3 Xrotation Yrotation Zrotation
														End Site
														{
															OFFSET 0.000000 0.000000 0.000000
														}
													}
												}
											}
										}
										JOINT LeftHandPinky1
										{
											OFFSET 20.037003 -1.530319 -10.950146
											CHANNELS 3 Xrotation Yrotation Zrotation
											JOINT LeftHandPinky2
											{
												OFFSET 5.254700 0.000000 0.000000
												CHANNELS 3 Xrotation Yrotation Zrotation
												JOINT LeftHandPinky3
												{
													OFFSET 4.810204 0.000000 0.000000
													CHANNELS 3 Xrotation Yrotation Zrotation
													JOINT LeftHandPinky4
													{
														OFFSET 3.647202 0.000000 0.000000
														CHANNELS 3 Xrotation Yrotation Zrotation
														End Site
														{
															OFFSET 0.000000 0.000000 0.000000
														}
													}
												}
											}
										}
									}
								}
							}
						}
					}
					JOINT RightShoulder
					{
						OFFSET -7.570500 7.247704 -3.868750
						CHANNELS 3 Xrotation Yrotation Zrotation
						JOINT RightShoulder_split
						{
							OFFSET -7.570500 7.247704 -3.868750
							CHANNELS 3 Xrotation Yrotation Zrotation
							JOINT RightArm
							{
								OFFSET -9.308998 -2.777710 0.208500
								CHANNELS 3 Xrotation Yrotation Zrotation
								JOINT RightForeArm
								{
									OFFSET -29.972300 0.000000 0.000000
									CHANNELS 3 Xrotation Yrotation Zrotation
									JOINT RightHand
									{
										OFFSET -26.026505 0.000000 0.000000
										CHANNELS 3 Xrotation Yrotation Zrotation
										JOINT RightHandThumb1
										{
											OFFSET -12.240601 -7.148026 9.207092
											CHANNELS 3 Xrotation Yrotation Zrotation
											JOINT RightHandThumb2
											{
												OFFSET -4.138618 -2.389435 2.389433
												CHANNELS 3 Xrotation Yrotation Zrotation
												JOINT RightHandThumb3
												{
													OFFSET -2.726974 -1.574417 1.574421
													CHANNELS 3 Xrotation Yrotation Zrotation
													JOINT RightHandThumb4
													{
														OFFSET -3.941010 -2.275345 2.275343
														CHANNELS 3 Xrotation Yrotation Zrotation
														End Site
														{
															OFFSET 0.000000 0.000000 0.000000
														}
													}
												}
											}
										}
										JOINT RightHandIndex1
										{
											OFFSET -24.424698 -1.985657 5.953444
											CHANNELS 3 Xrotation Yrotation Zrotation
											JOINT RightHandIndex2
											{
												OFFSET -6.426697 0.000000 0.000000
												CHANNELS 3 Xrotation Yrotation Zrotation
												JOINT RightHandIndex3
												{
													OFFSET -5.337898 0.000000 0.000000
													CHANNELS 3 Xrotation Yrotation Zrotation
													JOINT RightHandIndex4
													{
														OFFSET -4.409401 0.000000 0.000000
														CHANNELS 3 Xrotation Yrotation Zrotation
														End Site
														{
															OFFSET 0.000000 0.000000 0.000000
														}
													}
												}
											}
										}
										JOINT RightHandMiddle1
										{
											OFFSET -23.810097 0.000000 0.000000
											CHANNELS 3 Xrotation Yrotation Zrotation
											JOINT RightHandMiddle2
											{
												OFFSET -7.176498 0.000000 0.000000
												CHANNELS 3 Xrotation Yrotation Zrotation
												JOINT RightHandMiddle3
												{
													OFFSET -6.774902 0.000000 0.000000
													CHANNELS 3 Xrotation Yrotation Zrotation
													JOINT RightHandMiddle4
													{
														OFFSET -5.403328 0.000000 0.000000
														CHANNELS 3 Xrotation Yrotation Zrotation
														End Site
														{
															OFFSET 0.000000 0.000000 0.000000
														}
													}
												}
											}
										}
										JOINT RightHandRing1
										{
											OFFSET -22.908302 -0.839325 -6.020576
											CHANNELS 3 Xrotation Yrotation Zrotation
											JOINT RightHandRing2
											{
												OFFSET -6.337502 0.000000 0.000000
												CHANNELS 3 Xrotation Yrotation Zrotation
												JOINT RightHandRing3
												{
													OFFSET -5.779297 0.000000 0.000000
													CHANNELS 3 Xrotation Yrotation Zrotation
													JOINT RightHandRing4
													{
														OFFSET -4.965698 0.000000 0.000000
														CHANNELS 3 Xrotation Yrotation Zrotation
														End Site
														{
															OFFSET 0.000000 0.000000 0.000000
														}
													}
												}
											}
										}
										JOINT RightHandPinky1
										{
											OFFSET -20.037003 -1.530334 -10.950259
											CHANNELS 3 Xrotation Yrotation Zrotation
											JOINT RightHandPinky2
											{
												OFFSET -5.254700 0.000000 0.000000
												CHANNELS 3 Xrotation Yrotation Zrotation
												JOINT RightHandPinky3
												{
													OFFSET -4.810204 0.000000 0.000000
													CHANNELS 3 Xrotation Yrotation Zrotation
													JOINT RightHandPinky4
													{
														OFFSET -3.647202 0.000000 0.000000
														CHANNELS 3 Xrotation Yrotation Zrotation
														End Site
														{
															OFFSET 0.000000 0.000000 0.000000
														}
													}
												}
											}
										}
									}
								}
							}
						}
					}
				}
			}
		}
	}
	JOINT LeftUpLeg
	{
		OFFSET 15.427100 -6.655098 0.678600
		CHANNELS 3 Xrotation Yrotation Zrotation
		JOINT LeftLeg
		{
			OFFSET 4.081073 -39.591068 13.024000
			CHANNELS 3 Xrotation Yrotation Zrotation
			JOINT LeftFoot
			{
				OFFSET -4.081074 -37.707932 -15.979700
				CHANNELS 3 Xrotation Yrotation Zrotation
				JOINT LeftToeBase
				{
					OFFSET 5.346399 -15.068900 20.645000
					CHANNELS 3 Xrotation Yrotation Zrotation
					JOINT LeftToe_End
					{
						OFFSET 2.754700 0.931300 11.300900
						CHANNELS 3 Xrotation Yrotation Zrotation
						End Site
						{
							OFFSET 0.000000 0.000000 0.000000
						}
					}
				}
			}
		}
	}
	JOINT RightUpLeg
	{
		OFFSET -15.569500 -6.655098 0.678600
		CHANNELS 3 Xrotation Yrotation Zrotation
		JOINT RightLeg
		{
			OFFSET -4.081825 -39.591045 13.023800
			CHANNELS 3 Xrotation Yrotation Zrotation
			JOINT RightFoot
			{
				OFFSET 4.081824 -37.707954 -15.979600
				CHANNELS 3 Xrotation Yrotation Zrotation
				JOINT RightToeBase
				{
					OFFSET -5.346400 -15.068900 20.645000
					CHANNELS 3 Xrotation Yrotation Zrotation
					JOINT RightToe_End
					{
						OFFSET -2.754700 0.931300 11.300900
						CHANNELS 3 Xrotation Yrotation Zrotation
						End Site
						{
							OFFSET 0.000000 0.000000 0.000000
						}
					}
				}
			}
		}
	}
}
MOTION
Frames: 4
Frame Time: 0.016667
64.052895 69.445702 -36.252098 17.021924 -5.556674 713.884760 37.293120 -1.359685 -9.009494 3.324702 -0.005388 1.710502 0.000000 0.000000 0.000000 3.320224 0.069687 1.714682 -10.701416 -0.212993 -2.074794 -25.893804 -3.052780 -3.080086 -0.000002 -0.000001 -0.000001 -0.036531 1.382370 3.025443 0.000000 0.000000 0.000000 -21.303534 22.272369 -26.305092 -0.000052 -81.466706 -0.000022 21.775895 22.164271 25.734537 3.362069 12.388424 8.079679 1.012536 0.452037 -1.079081 -2.879651 -2.724041 2.871906 -0.000002 -0.000001 0.000001 5.064571 -21.352659 12.934719 2.609077 5.399440 -51.555381 1.066208 3.685532 -32.259581 -0.000003 -0.000001 -0.000001 1.066111 -16.631073 2.806722 1.129305 3.783483 -33.228498 0.513093 2.612756 -22.217767 -0.000001 0.000001 -0.000001 -1.597783 -11.079078 -8.654912 0.192405 1.619533 -13.549490 0.053176 0.855848 -7.110645 -0.000000 0.000002 0.000002 -0.084870 0.765993 -17.087378 -0.017967 -4.042614 -0.607467 0.025709 -0.595618 4.941679 0.000001 0.000001 -0.000001 0.009029 -1.155006 -3.674749 0.000000 0.000000 0.000000 151.437602 190.135227 -164.585689 -0.000012 51.387987 0.000009 -20.829649 10.502361 -15.904647 -12.864467 13.318240 -9.916075 16.682927 -44.602173 -3.768031 2.602255 -8.390837 -3.112781 0.000001 0.000000 -0.000001 2.738893 8.449588 -20.575402 4.083428 -6.332779 65.597355 1.858718 -4.736437 42.834329 0.000004 -0.000000 0.000000 0.622159 6.773492 -5.159537 1.887350 -4.767027 43.179869 0.059884 -4.031100 30.194033 -0.000001 0.000001 0.000001 -1.131947 4.266772 13.029855 0.409715 -2.355804 19.729445 -0.966748 -1.605740 11.395153 -0.000000 0.000000 0.000001 -0.719371 -0.384293 28.142261 0.000005 -0.000002 0.000022 0.012383 0.415666 -3.412871 0.000001 -0.000001 0.000001 -77.088377 -3.783728 26.200881 64.063773 8.587404 -6.377094 -1.290692 5.417759 -2.794237 -5.484966 0.000003 0.000000 0.000000 0.000002 0.000000 4.995405 -9.803546 -9.465028 45.358525 -8.206934 -6.558495 -14.762322 -24.699014 15.066434 -11.139596 -2.162905 15.025801 0.000002 -0.000003 0.000002 
65.548775 70.365936 -37.176300 17.108604 -7.089970 714.535923 36.474187 -0.329885 -10.267737 3.203188 0.198378 1.111124 0.000000 0.000000 0.000000 3.193082 0.230345 1.099231 -10.600857 -0.361714 -1.941249 -25.401468 -3.698653 -2.850406 -0.000001 -0.000000 -0.000001 -0.064978 1.578011 3.152919 0.000000 0.000000 0.000000 -19.174933 24.361910 -27.926275 -0.000070 -79.166906 -0.000072 21.742826 19.912850 24.059543 3.300152 12.418669 8.222848 1.008013 -0.217193 -0.718186 -3.253973 -3.420235 2.934297 0.000002 0.000003 -0.000000 4.214773 -15.938694 14.998013 3.065116 5.730348 -56.255446 1.281836 4.006152 -35.473841 0.000001 -0.000001 0.000001 1.006705 -12.867770 3.880727 1.355394 4.107152 -36.513665 0.634451 2.891765 -24.744467 -0.000000 -0.000001 -0.000001 -1.397082 -9.004230 -9.001282 0.249872 1.841580 -15.451990 0.078071 1.036077 -8.618752 -0.000002 0.000003 -0.000002 0.061035 1.327425 -18.765376 -0.017905 -4.036229 -0.660491 0.018649 -0.507469 4.208951 -0.000003 0.000002 0.000001 -0.017763 -1.281124 -4.036779 0.000000 0.000000 0.000000 149.113384 185.575516 -167.091849 0.000003 50.080153 -0.000002 -19.793530 12.357532 -14.829772 -13.267564 13.341860 -12.514662 15.746299 -41.084981 -3.297729 2.150040 -7.507787 -3.107262 -0.000000 -0.000001 0.000002 2.814781 8.183775 -22.162058 4.115554 -6.347168 65.888205 1.802464 -4.675215 42.148469 0.000007 -0.000000 -0.000000 0.741423 6.628436 -6.461716 1.897011 -4.777270 43.296077 -0.002346 -3.994775 29.744630 -0.000005 0.000001 0.000002 -1.020979 4.235017 12.021048 0.410788 -2.358809 19.755492 -1.003044 -1.580135 11.167606 -0.000000 0.000001 -0.000002 -0.697543 -0.328815 27.345146 -0.000000 0.000001 -0.000003 0.012833 0.423103 -3.474083 -0.000001 -0.000000 -0.000001 -76.213307 -2.644755 25.611341 62.532581 8.819478 -6.879717 -1.194760 7.140437 -1.560278 -5.468765 0.000005 -0.000002 0.000000 0.000003 0.000000 9.297410 -9.866509 -7.591059 41.352564 -7.745495 -5.493257 -13.626376 -23.184541 16.603160 -13.454259 -2.348816 15.856247 0.000000 -0.000003 -0.000001 
66.945511 71.336838 -38.076561 17.239558 -8.599004 715.233149 35.616984 0.805314 -11.454081 3.102289 0.410912 0.463503 0.000000 0.000000 0.000000 3.088651 0.399144 0.434616 -10.460220 -0.510505 -1.817423 -24.881044 -4.351916 -2.622947 0.000001 -0.000000 -0.000000 -0.090142 1.713343 3.358267 0.000000 0.000000 0.000000 -16.735176 26.258222 -29.749579 -0.000058 -77.279725 -0.000050 21.168184 16.678137 23.120230 3.223340 12.405563 8.352238 1.171332 -0.386804 -0.336141 -3.479338 -3.830504 2.986846 0.000000 0.000001 -0.000001 3.171723 -11.670056 16.036828 3.435166 5.959739 -59.887884 1.452456 4.234786 -37.848059 -0.000003 -0.000001 -0.000001 0.764264 -9.819713 4.058098 1.547602 4.354149 -39.118696 0.734958 3.100238 -26.667224 -0.000001 -0.000000 0.000001 -1.318738 -7.310456 -10.035994 0.303200 2.024559 -17.033028 0.101912 1.182689 -9.849981 0.000003 0.000001 0.000001 0.225497 1.872617 -20.940745 -0.017955 -4.040788 -0.622510 0.012616 -0.417393 3.460594 0.000002 0.000003 0.000003 -0.038179 -1.352651 -4.346499 0.000000 0.000000 0.000000 147.092468 180.964906 -169.251978 0.000005 48.885064 -0.000003 -18.426942 14.080512 -13.748983 -13.525668 12.937304 -15.007823 14.406607 -36.388232 -2.721922 1.448747 -6.137574 -3.097426 -0.000001 0.000003 -0.000001 2.795214 7.831810 -23.384666 4.114966 -6.346923 65.882905 1.730307 -4.594516 41.255620 -0.000001 0.000001 0.000001 0.814600 6.378994 -7.540853 1.891396 -4.771320 43.228469 -0.049544 -3.925093 29.146121 -0.000002 -0.000001 0.000000 -0.905248 4.118213 11.081092 0.408462 -2.352315 19.698730 -1.018751 -1.540951 10.876225 -0.000003 0.000000 0.000000 -0.655702 -0.308696 26.499676 -0.000001 -0.000007 0.000017 0.013262 0.430203 -3.532326 0.000000 -0.000000 -0.000001 -75.255106 -1.631996 24.979633 60.770010 9.011140 -7.339626 -0.946058 8.945052 -0.475479 -5.434427 0.000001 -0.000000 0.000000 -0.000000 -0.000000 13.429654 -9.703704 -5.868364 36.906012 -7.153854 -4.464867 -11.744018 -20.926258 18.415740 -15.241482 -2.731214 17.556223 -0.000000 0.000001 -0.000000 
68.245956 72.333527 -38.952576 17.468158 -10.070468 715.949390 34.630172 2.043909 -12.509284 3.020528 0.627745 -0.197871 0.000000 0.000000 0.000000 3.005873 0.573892 -0.244530 -10.288298 -0.657665 -1.705413 -24.341508 -5.005092 -2.402630 -0.000000 -0.000001 -0.000001 -0.103284 1.737704 3.579328 0.000000 0.000000 0.000000 -13.950982 28.085746 -31.729818 0.000044 -75.802594 0.000035 19.977704 12.451145 22.902280 3.128245 12.344145 8.469744 1.295409 -0.491927 -0.133276 -3.550438 -3.948651 3.020080 -0.000002 0.000003 0.000001 2.327520 -8.788925 16.270986 3.698106 6.103862 -62.389864 1.571968 4.383831 -39.438407 0.000000 0.000002 -0.000002 0.517667 -7.684711 3.572685 1.690846 4.524052 -40.969018 0.809000 3.243266 -28.005490 0.000002 0.000002 0.000000 -1.317519 -6.088511 -11.508990 0.346144 2.159700 -18.209614 0.122064 1.293355 -10.782465 -0.000001 0.000000 -0.000001 0.393685 2.345668 -23.342612 -0.018052 -4.049863 -0.547534 0.008099 -0.334709 2.774688 0.000001 0.000002 0.000002 -0.053444 -1.346301 -4.684760 0.000000 0.000000 0.000000 145.443933 176.423335 -171.083521 -0.000006 47.935265 0.000001 -16.712281 15.308537 -12.732603 -13.646764 12.018232 -17.311581 12.612673 -30.503618 -2.049843 0.483783 -4.243145 -3.081313 -0.000000 -0.000003 0.000000 2.676468 7.399311 -24.154655 4.072187 -6.327701 65.495292 1.638738 -4.488304 40.099187 -0.000002 0.000000 -0.000000 0.833912 6.021708 -8.333762 1.866126 -4.744390 42.923760 -0.076303 -3.813620 28.358083 -0.000001 -0.000000 -0.000002 -0.789135 3.905393 10.244404 0.401815 -2.333684 19.536264 -1.006085 -1.484708 10.504816 0.000001 -0.000002 0.000003 -0.592024 -0.333974 25.618040 -0.000002 0.000006 0.000038 0.013660 0.436518 -3.584339 -0.000001 0.000000 -0.000001 -74.318482 -0.770305 24.348605 58.824526 9.176326 -7.778570 -0.540645 10.786108 0.495014 -5.335780 -0.000007 -0.000007 -0.000000 -0.000001 -0.000000 17.330656 -9.320837 -4.209346 31.970681 -6.521191 -3.513274 -8.901494 -17.959002 20.275717 -16.102545 -3.424419 20.675811 -0.000000 0.000001 0.000001 
